<svg xmlns="http://www.w3.org/2000/svg" width="646" height="200" viewBox="0 0 646 200" focusable="false" role="img" aria-label="Carnegie Science" fill="currentColor"><path d="M340,165.6c-1-.5-1.1-.8-1.1-2.8,0-3.7.3-6.6.4-7.8s.2-1.2.6-1.2.5.2.5.8a13.7,13.7,0,0,0,.2,2.7c1.1,5.5,5.9,7.5,10.8,7.5,7,0,10.4-5.1,10.4-9.8s-2.1-7.9-8.4-13.1l-3.3-2.7c-7.7-6.3-9.5-10.8-9.5-15.8,0-7.8,5.8-13.1,15.1-13.1a31.6,31.6,0,0,1,6.8.7l2.5.4c.6,0,.7.1.7.5s-.3,2.8-.3,7.7c0,1.2-.1,1.7-.5,1.7s-.5-.4-.6-.9a14.6,14.6,0,0,0-.9-3.6c-.4-.8-2.4-3.9-9.1-3.9-5,0-8.9,3.1-8.9,8.4s1.9,6.8,8.9,12.2l2,1.6c8.6,6.8,10.6,11.3,10.6,17.1a15.5,15.5,0,0,1-6.2,12.2,19.1,19.1,0,0,1-11,3.1A20.3,20.3,0,0,1,340,165.6Z"></path><path d="M385,160.7c-6.3-5.4-7.8-12.4-7.8-18.3a24.5,24.5,0,0,1,7.2-16.9c3.9-3.7,9.7-6.6,19.5-6.6a63.8,63.8,0,0,1,9.3.7,40.4,40.4,0,0,0,6.5.9c.7,0,.8.3.8.7s-.1,1.2-.3,3.5-.1,5.5-.1,6.3-.4,1.3-.7,1.3-.5-.4-.5-1.3a8,8,0,0,0-2.7-6.2c-2.3-1.9-6.9-3.4-12.6-3.4-8.2,0-12.1,2.2-14.4,4.3-4.7,4.4-5.7,9.9-5.7,16.1,0,11.9,9.4,22.5,23.1,22.5,4.8,0,8-.4,10.5-2.9a12,12,0,0,0,2.5-5.3c.1-.7.2-.9.7-.9s.6.4.6.9a77.8,77.8,0,0,1-1.5,8c-.4,1.2-.5,1.4-1.6,1.8-2.6,1-7.4,1.4-11.6,1.4C396.5,167.4,390,165.1,385,160.7Z"></path><path d="M441.8,148.5c0,6,0,10.8.3,13.5s.4,3,2.3,3.3l2.9.3a.5.5,0,0,1,.5.5c0,.3-.3.5-1,.5l-8-.2-6.3.2c-.7,0-1-.1-1-.5a.5.5,0,0,1,.5-.5,6.9,6.9,0,0,0,2-.3c1.2-.3,1.5-1.5,1.7-3.3s.4-7.5.4-13.5V137.6c0-9.6,0-11.3-.1-13.3s-.7-3.1-2-3.3l-2-.2a.5.5,0,0,1-.5-.5c0-.4.3-.5,1-.5h12.9c.7,0,1,.1,1,.5a.6.6,0,0,1-.5.5h-1.6c-1.7.4-2.1,1.2-2.3,3.4s-.1,3.7-.1,13.3v10.9Z"></path><path d="M462.9,137.6c0-9.6,0-11.3-.1-13.3s-.5-3.1-2.6-3.4H458a.6.6,0,0,1-.5-.5c0-.4.3-.5,1-.5h22.7l2.9-.4a3.2,3.2,0,0,1,.9-.3c.2,0,.3.3.3.6a21,21,0,0,0-.5,2.9c-.1.6-.2,3.3-.4,4.1s-.3.7-.6.7-.5-.3-.5-.8a6.9,6.9,0,0,0-.4-2.2c-.4-1-1.1-1.5-4.6-1.9l-9.2-.2c-.3,0-.4.2-.4.7v16.8c0,.4,0,.7.4.7h10.7c1.5-.1,2.5-.2,3.1-.9s.7-.8.9-.8.4.1.4.5a25.9,25.9,0,0,0-.5,3.4c-.1,1.2-.3,3.6-.3,4s-.1,1.2-.6,1.2-.4-.2-.4-.6a5.1,5.1,0,0,0-.3-2c-.2-.9-.8-1.6-3.3-1.9s-8.6-.3-9.7-.3-.4.2-.4.4v5.2c0,2.1-.1,9.3,0,10.5.1,4.2,1.3,5,7.6,5,1.7,0,4.7,0,6.4-.7s2.5-1.8,2.9-4.4c.1-.7.3-.9.7-.9s.4.5.4.9a47.4,47.4,0,0,1-.9,6.1c-.4,1.6-1.1,1.6-3.6,1.6l-11.1-.2H459.3c-.7,0-1-.1-1-.5a.5.5,0,0,1,.5-.5l2-.3c1.2-.2,1.4-1.5,1.7-3.3a117.3,117.3,0,0,0,.4-13.5v-11Z"></path><path d="M505.7,158c.1,5.2.7,6.7,2.5,7.2a15.2,15.2,0,0,0,3.2.4.5.5,0,0,1,.5.5c0,.4-.4.5-1.2.5-3.6,0-6.2-.2-6.8-.2l-6.2.2c-.7,0-1-.1-1-.5a.5.5,0,0,1,.5-.5,9.7,9.7,0,0,0,2.6-.4c1.6-.4,1.8-2.1,1.8-7.8V122c0-2.5.4-3.1.9-3.1s1.8,1.2,2.5,1.9,10.3,10.9,20.2,21.1c6.3,6.5,13.2,13.9,15.1,15.9l-.7-31c-.1-4-.4-5.4-2.4-5.7l-3.1-.3c-.4,0-.5-.4-.5-.6s.5-.4,1.2-.4H547c.7,0,1.2.1,1.2.4a.8.8,0,0,1-.7.6H546c-2.1.4-2.3,1.7-2.3,5.4v36.3c0,4.1-.1,4.4-.5,4.4s-1.3-.5-4.9-3.8c-.7-.6-9.9-9.8-16.7-16.8l-16.6-17.5Z"></path><path d="M563.1,160.7c-6.3-5.4-7.8-12.4-7.8-18.3a24.5,24.5,0,0,1,7.2-16.9c3.9-3.7,9.7-6.6,19.6-6.6a63.8,63.8,0,0,1,9.3.7,40.4,40.4,0,0,0,6.5.9c.7,0,.8.3.8.7s-.1,1.2-.3,3.5-.1,5.5-.1,6.3-.4,1.3-.7,1.3-.5-.4-.5-1.3a8,8,0,0,0-2.7-6.2c-2.3-1.9-6.9-3.4-12.6-3.4-8.3,0-12.2,2.2-14.5,4.3-4.7,4.4-5.7,9.9-5.7,16.1,0,11.9,9.4,22.5,23.2,22.5,4.8,0,8-.4,10.5-2.9a12,12,0,0,0,2.5-5.3c.1-.7.2-.9.7-.9s.6.4.6.9a77.8,77.8,0,0,1-1.5,8c-.4,1.2-.5,1.4-1.6,1.8s-7.4,1.4-11.6,1.4C574.6,167.4,568.1,165.1,563.1,160.7Z"></path><path d="M614.2,137.6c0-9.6,0-11.3-.1-13.3s-.5-3.1-2.6-3.4h-2.2a.6.6,0,0,1-.5-.5c0-.4.3-.5,1-.5h22.7l2.9-.4.9-.3c.2,0,.3.3.3.6a21,21,0,0,0-.5,2.9c-.1.6-.2,3.3-.4,4.1s-.3.7-.6.7-.5-.3-.5-.8a6.9,6.9,0,0,0-.4-2.2c-.4-1-1.1-1.5-4.6-1.9l-9.2-.2c-.3,0-.4.2-.4.7v16.8c0,.4,0,.7.4.7h10.7c1.5-.1,2.5-.2,3.1-.9s.7-.8.9-.8.4.1.4.5a25.9,25.9,0,0,0-.5,3.4c-.1,1.2-.3,3.6-.3,4s-.1,1.2-.6,1.2-.4-.2-.4-.6a5.1,5.1,0,0,0-.3-2c-.2-.9-.8-1.6-3.3-1.9s-8.6-.3-9.7-.3-.4.2-.4.4v5.2c0,2.1-.1,9.3,0,10.5.1,4.2,1.3,5,7.6,5,1.7,0,4.7,0,6.4-.7s2.5-1.8,2.9-4.4c.1-.7.3-.9.7-.9s.4.5.4.9a47.4,47.4,0,0,1-.9,6.1c-.4,1.6-1.1,1.6-3.6,1.6l-11.1-.2H610.6c-.7,0-1-.1-1-.5a.5.5,0,0,1,.5-.5l2-.3c1.2-.2,1.4-1.5,1.7-3.3a117.3,117.3,0,0,0,.4-13.5v-11Z"></path><path d="M250.5,86.8c-7.1-6.3-8.8-14.6-8.8-21.5a29.4,29.4,0,0,1,8.1-19.9c4.4-4.4,11-7.9,22.2-7.9a57.3,57.3,0,0,1,10.5.9,59.4,59.4,0,0,0,7.4,1.2c.8.1.9.4.9.8s-.2,1.5-.4,4.1-.1,6.4-.2,7.5-.2,1.5-.7,1.5-.6-.5-.6-1.5a10.1,10.1,0,0,0-3.1-7.4c-2.5-2.2-8.1-4.1-14.5-4.1-9.7,0-14.2,2.8-16.7,5.3-5.3,5.1-6.5,11.6-6.5,19,0,13.9,10.7,26.6,26.3,26.6,5.5,0,9.7-.7,12.7-3.6a14,14,0,0,0,2.7-6.1c.1-.8.3-1.1.7-1.1s.5.5.5,1.1a82.4,82.4,0,0,1-1.6,9.3c-.4,1.4-.6,1.5-1.9,2.1-2.9,1.2-8.4,1.7-13.1,1.7C263.6,94.7,256.3,92,250.5,86.8Z"></path><path d="M316.7,48.1c.8-2,1.1-2.4,1.5-2.4s.9.9,1.5,2.3,11.5,28.1,15.4,37.5c2.3,5.5,4.1,6.3,5.5,6.8a8.5,8.5,0,0,0,2.5.4c.4,0,.8.1.8.5s-.7.5-1.5.5H332.3c-1.2-.1-2.3-.1-2.3-.4s.1-.3.4-.4a1.2,1.2,0,0,0,.6-1.7l-5.7-14.2c-.1-.3-.2-.4-.6-.4H309.8c-.3,0-.5.1-.7.5l-3.6,9.9a12.2,12.2,0,0,0-.9,4.1c0,1.2,1.1,1.7,2.2,1.7h.6c.5,0,.7.2.7.5s-.4.5-.9.5l-5.7-.2-6.5.2c-.8,0-1.2-.1-1.2-.5a.6.6,0,0,1,.6-.5h1.9c2.9-.4,4.1-2.5,5.4-5.7Zm7.2,25.8c.3,0,.3-.1.2-.4l-6.4-16.9c-.4-.9-.7-.9-1.1,0l-6,16.9c-.1.3,0,.4.2.4Z"></path><path d="M352.4,64.8c0-9.6,0-11.3-.1-13.3s-.5-3.1-2.6-3.4h-2.2a.6.6,0,0,1-.5-.5c0-.4.3-.5,1-.5h15.6c4.1,0,8.6.4,11.9,2.7a10.8,10.8,0,0,1,4.4,8.4c0,4.6-1.9,9-7.9,14.1,5.2,6.5,9.7,12.1,13.4,16s5.5,4.1,7.1,4.3l2.3.2a.6.6,0,0,1,.6.5c0,.4-.4.5-1.5.5h-4c-3.6,0-5.2-.4-6.8-1.2s-5.1-4.4-8.7-9.1-5.5-7.3-6.9-9a1,1,0,0,0-.9-.4h-8.1c-.3,0-.4.1-.4.5v1.5c0,6,0,10.8.3,13.3s.6,3,2.5,3.3l2.8.3a.5.5,0,0,1,.5.5c0,.3-.3.5-1,.5l-7.9-.2-6.3.2c-.7,0-1-.1-1-.5a.5.5,0,0,1,.5-.5,6.9,6.9,0,0,0,2-.3c1.2-.3,1.4-1.5,1.7-3.3s.4-7.4.4-13.4v-11Zm5.5,5.2a.8.8,0,0,0,.4.8c.9.5,4.2.9,7.1.9a8.5,8.5,0,0,0,4.8-1.1c2.2-1.5,3.9-4.7,3.9-9.5,0-7.7-4.2-12.1-11.1-12.1a22.6,22.6,0,0,0-4.6.4.8.8,0,0,0-.5.7V70Z"></path><path d="M404,85.2c.1,5.1.7,6.6,2.5,7.1a15.2,15.2,0,0,0,3.2.4.5.5,0,0,1,.5.5c0,.4-.4.5-1.2.5-3.6,0-6.2-.2-6.8-.2l-6.2.2c-.7,0-1-.1-1-.5a.5.5,0,0,1,.5-.5,9.7,9.7,0,0,0,2.6-.4c1.6-.4,1.8-2.1,1.8-7.7V49.1c0-2.5.4-3.1.9-3.1s1.8,1.2,2.5,1.9S413.6,58.8,423.5,69c6.3,6.5,13.2,13.9,15.1,15.9l-.7-31c-.1-4-.4-5.4-2.4-5.7l-3.1-.3c-.4,0-.5-.4-.5-.6s.5-.4,1.2-.4h12.2c.7,0,1.2.1,1.2.4a.8.8,0,0,1-.7.6h-1.5c-2.1.4-2.3,1.7-2.3,5.4V89.6c0,4.1-.1,4.4-.5,4.4s-1.3-.5-4.9-3.8c-.7-.6-9.9-9.7-16.7-16.7L403.2,56Z"></path><path d="M460.5,64.8c0-9.6,0-11.3-.1-13.3s-.5-3.1-2.6-3.4h-2.2a.6.6,0,0,1-.5-.5c0-.4.3-.5,1-.5h7.4c.4,0,13.8.1,15.3,0l2.9-.4a3.2,3.2,0,0,1,.9-.3c.2,0,.3.3.3.6a21,21,0,0,0-.5,2.9c-.1.6-.2,3.3-.4,4.1s-.3.7-.6.7-.5-.3-.5-.8a6.9,6.9,0,0,0-.4-2.2c-.4-1-1.1-1.5-4.6-1.9l-9.2-.2c-.3,0-.4.2-.4.7V67.1c0,.4,0,.7.4.7h10.7c1.5-.1,2.5-.2,3.1-.9s.7-.8.9-.8.4.1.4.5a25.9,25.9,0,0,0-.5,3.4c-.1,1.2-.3,3.6-.3,4s-.1,1.2-.6,1.2-.4-.2-.4-.6a5.1,5.1,0,0,0-.3-2c-.2-.9-.8-1.6-3.3-1.9s-8.6-.3-9.7-.3-.4.2-.4.4v5.2c0,2.1-.1,9.3,0,10.5.1,4.1,1.3,4.9,7.6,4.9,1.7,0,4.7,0,6.4-.7s2.5-1.8,2.9-4.3c.1-.7.3-.9.7-.9s.4.5.4.9a46.2,46.2,0,0,1-.9,6c-.4,1.6-1.1,1.6-3.6,1.6l-11.1-.2H456.9c-.7,0-1-.1-1-.5a.5.5,0,0,1,.5-.5l2-.3c1.2-.2,1.4-1.5,1.7-3.3s.4-7.4.4-13.4v-11Z"></path><path d="M530.7,77.9c0-5-.1-5.7-2.8-6.3h-2.2a.6.6,0,0,1-.5-.5c0-.4.3-.5,1-.5h13.9c.7,0,1,.1,1,.5a.6.6,0,0,1-.5.5H539c-1.7.3-2.3,1.2-2.4,3.4s-.1,3.8-.1,6.4v6.9c0,2.8-.1,2.9-.9,3.3-4.1,2.1-9.9,2.8-13.6,2.8s-14-.6-21.1-6.6c-3.9-3.3-7.6-9.9-7.6-17.6,0-9.9,5-16.9,10.7-20.3S516.1,46,521,46a52.1,52.1,0,0,1,9.8,1,27.2,27.2,0,0,0,5.2.7c.7,0,.8.3.8.6a82.3,82.3,0,0,0-.4,8.7c0,1-.3,1.3-.7,1.3s-.4-.4-.4-.9a9,9,0,0,0-1.5-4.1c-1.6-2.3-6.5-4.8-14.8-4.8-3.9,0-8.5.3-13.4,4s-6.3,8.4-6.3,15.6c0,8.7,4.5,15,6.8,17.1a23.1,23.1,0,0,0,16.4,6.5c2.3,0,5.2-.2,6.9-1.2s1.3-.7,1.3-1.9V77.9Z"></path><path d="M561.6,75.7c0,6,0,10.8.3,13.4s.4,3,2.3,3.3l2.9.3a.5.5,0,0,1,.5.5c0,.3-.3.5-1,.5l-8-.2-6.3.2c-.7,0-1-.1-1-.5a.5.5,0,0,1,.5-.5,6.9,6.9,0,0,0,2-.3c1.2-.3,1.5-1.5,1.7-3.3s.4-7.4.4-13.4V64.8c0-9.6,0-11.3-.1-13.3s-.7-3.1-2-3.3l-2-.2a.5.5,0,0,1-.5-.5c0-.4.3-.5,1-.5h12.9c.7,0,1,.1,1,.5a.6.6,0,0,1-.5.5h-1.6c-1.7.4-2.1,1.2-2.3,3.4s-.1,3.7-.1,13.3V75.7Z"></path><path d="M582.7,64.8c0-9.6,0-11.3-.1-13.3s-.5-3.1-2.6-3.4h-2.2a.6.6,0,0,1-.5-.5c0-.4.3-.5,1-.5h7.4c.4,0,13.8.1,15.3,0l2.9-.4.9-.3c.2,0,.3.3.3.6a21,21,0,0,0-.5,2.9c-.1.6-.2,3.3-.4,4.1s-.3.7-.6.7-.5-.3-.5-.8a6.9,6.9,0,0,0-.4-2.2c-.4-1-1.1-1.5-4.6-1.9l-9.2-.2c-.3,0-.4.2-.4.7V67.1c0,.4,0,.7.4.7h10.7c1.5-.1,2.5-.2,3.1-.9s.7-.8.9-.8.4.1.4.5a25.9,25.9,0,0,0-.5,3.4c-.1,1.2-.3,3.6-.3,4s-.1,1.2-.6,1.2-.4-.2-.4-.6a5.1,5.1,0,0,0-.3-2c-.2-.9-.8-1.6-3.3-1.9s-8.6-.3-9.7-.3-.4.2-.4.4v5.2c0,2.1-.1,9.3,0,10.5.1,4.1,1.3,4.9,7.6,4.9,1.7,0,4.7,0,6.4-.7s2.5-1.8,2.9-4.3c.1-.7.3-.9.7-.9s.4.5.4.9a46.2,46.2,0,0,1-.9,6c-.4,1.6-1.1,1.6-3.6,1.6l-11.1-.2H579.1c-.7,0-1-.1-1-.5a.5.5,0,0,1,.5-.5l2-.3c1.2-.2,1.4-1.5,1.7-3.3s.4-7.4.4-13.4v-11Z"></path><path d="M28.1,124.9l-.9.3a31.5,31.5,0,0,0-2.5,7.3c-.3,1.5-.5,3-.7,4.5a25.8,25.8,0,0,1,13.5-1.5,14,14,0,0,1,.6-4.1,17.3,17.3,0,0,1,2.6-5.7A16.7,16.7,0,0,0,28.1,124.9Z"></path><path d="M28.8,106.2h-.5l-2.6.4h-.4l-2.4.5h-.3l-2.5.6h-.5l-2.5.8h-.2l-2.3.8-.4.2-2.4,1-.5.2-2.4,1.2A83.9,83.9,0,0,0,15.2,134c.1-1.2.3-2.3.5-3.4a40.8,40.8,0,0,1,6-14.3A41.8,41.8,0,0,1,31.5,106h0Z"></path><path d="M52,155.1a22.2,22.2,0,0,1-10.5-7.5h-.1a30.1,30.1,0,0,0-4.3,17.1,96.8,96.8,0,0,0,7.7,6.4l2.1,1a50.2,50.2,0,0,0,6.5,2.3A40.2,40.2,0,0,1,52,155.1Z"></path><path d="M78.9,113.2l.6.8.5.7v.2c.3.6.7,1.1,1,1.8a26.1,26.1,0,0,1,2.7,7.7,27.8,27.8,0,0,1-.8,13.7,44.5,44.5,0,0,0,24.6,4.6h.7v-.2a1.4,1.4,0,0,0,.2-.6,56.2,56.2,0,0,0,3.1-24.5h0c-4.2-.3-8.5-.8-12.7-1.5h-.1l-4.1-.7h-.2l-4-.7h-.3l-3.9-.8h-.3l-4-.8h-.2l-4.1-.9Z"></path><path d="M68.1,154.7a23.3,23.3,0,0,1-12.5,1.4H55a37.3,37.3,0,0,0,4.4,19.5,43,43,0,0,0,12.4-.4,39.7,39.7,0,0,0,12-4.1l.4-.2A42.9,42.9,0,0,1,68.1,154.7Z"></path><path d="M77.9,147.4a38.3,38.3,0,0,1-2.8,2.9l-1.6,1.3-.8.6-.9.6-.9.5a44.3,44.3,0,0,0,18.4,14.2,54.6,54.6,0,0,0,16.4-19,45.2,45.2,0,0,1-23.9-7.2A31.7,31.7,0,0,1,77.9,147.4Z"></path><path d="M67.1,145.8l.5-.4.6-.4,1.1-.9a20.3,20.3,0,0,0,2-2.1,19.4,19.4,0,0,0,2.8-4.8,19.8,19.8,0,0,0,1-11,19.1,19.1,0,0,0-1.9-5.2l-.7-1.2-.4-.6-.4-.6-2-2.2a23.8,23.8,0,0,0-9.7-6.2A24.9,24.9,0,0,0,48.5,109a24.6,24.6,0,0,0-10.7,4.1,31.3,31.3,0,0,0-7.8,7.6,18.7,18.7,0,0,1,12,3.5h0a16.4,16.4,0,0,1,3.1-2.8,14.4,14.4,0,0,1,3.9-2,14.8,14.8,0,0,1,8.6-.4,16.1,16.1,0,0,1,7.4,4.2l.7.8.9,1.3.3.5.5,1a13,13,0,0,1,1.1,4.3,12.3,12.3,0,0,1-2.4,8.3,11,11,0,0,1-3.2,2.9,10.5,10.5,0,0,1-4.3,1.5,10.1,10.1,0,0,1-8.1-2.9l-.7-.8h-.1l-.3-.3-.3-.4a7.8,7.8,0,0,1-.9-2.1,8.6,8.6,0,0,1,.1-4.5,9.1,9.1,0,0,1,2.4-3.7l.9-.6,1.1-.5a5.9,5.9,0,0,1,2.3-.4h.1a6.1,6.1,0,0,1,6.2,5.4,5.6,5.6,0,0,1-1.6,4.2l-.4.4-.5.3-1.1.5a4.5,4.5,0,0,1-2.3,0,3.8,3.8,0,0,1-2.8-3.3,3.3,3.3,0,0,1,2.5-3.5,2.9,2.9,0,0,1,2.6.8,1.9,1.9,0,0,1,.6,1.7,2.3,2.3,0,0,1-1.3,1.8,1.8,1.8,0,0,1-2.1-.7l.7-.5a.8.8,0,0,0,1,.2,1.1,1.1,0,0,0,0-1.8,1.4,1.4,0,0,0-1.1-.2,1.8,1.8,0,0,0-.8.7,1.4,1.4,0,0,0-.2,1.1,2.1,2.1,0,0,0,1.5,1.5,2,2,0,0,0,1.1-.1l.5-.2.2-.2.2-.2a2.5,2.5,0,0,0,.6-2.2,3,3,0,0,0-.4-1l-.8-.8a3.1,3.1,0,0,0-2.3-.6,2,2,0,0,0-1.1.3l-.5.3-.5.4a4.5,4.5,0,0,0-1.2,2.1,3.6,3.6,0,0,0,.1,2.3,3.1,3.1,0,0,0,.5,1l.4.5.4.4a5.5,5.5,0,0,0,4.6,1.3,6.8,6.8,0,0,0,2.2-.9,6.6,6.6,0,0,0,1.8-1.9,7.4,7.4,0,0,0,1.1-4.8,8.8,8.8,0,0,0-.7-2.3l-.3-.5-.8-1c-.1-.2-.3-.3-.5-.5a8.8,8.8,0,0,0-4.6-2.3l-1.6-.2a8,8,0,0,0-3.4.7,9.8,9.8,0,0,0-2.2,1.3,11.4,11.4,0,0,0-1.9,1.9,11.9,11.9,0,0,0-2.3,4.8,11.4,11.4,0,0,0,.1,5.2,10.7,10.7,0,0,0,2.4,4.6,15.1,15.1,0,0,0,9.4,5.2A18.8,18.8,0,0,0,67.1,145.8Z"></path><path d="M38,140l-.3-2a24.8,24.8,0,0,0-13.6,3.3l.3,3.2a30.9,30.9,0,0,0,3.5,10.2c1.7,2.1,3.5,4.1,5.3,6a30.5,30.5,0,0,1,6.9-15.3A16.4,16.4,0,0,1,38,140Z"></path><path d="M115.1,117.5a50.4,50.4,0,0,1,.6,11,105.8,105.8,0,0,1,7.6-10.9Z"></path><path d="M103.1,163a54.7,54.7,0,0,1-4.5,5.1,59.8,59.8,0,0,1-5.4,4.9,50,50,0,0,1-6.1,4.1,48.8,48.8,0,0,1-13.9,5.3,54.3,54.3,0,0,1-6.7,1,108.6,108.6,0,0,0,36.7,8.2A105.3,105.3,0,0,1,103.1,163Z"></path><path d="M109.7,191.6h.5c45.8,0,84.5-27.5,96.8-65.2C178.9,167.4,140.8,158.5,109.7,191.6Z"></path><path d="M210.9,96a83.3,83.3,0,0,0-9.1-33c.1,61-77.6,69.4-91.7,128.2C129.2,155.1,207.2,145.8,210.9,96Z"></path><path d="M189.6,47.7c-1.5-1.8-3-3.5-4.6-5.2-.2,56.8-88,68.1-76.4,149.5C115.9,130.9,212.6,106.3,189.6,47.7Z"></path><path d="M8,107.3c.1.5.1.9.2,1.4,34.1-18,76.4,6.8,118,5.2,2.5-3.1,5.2-6,7.8-8.9C89.4,110.3,42.8,79.4,8,107.3Z"></path><path d="M64,79.3c5.4.7,11.1,1.6,18,2.8l-.9-18Z"></path><path d="M108,8A105.4,105.4,0,0,0,60.7,18.9l16.3,5L59.5,21.1l5.7,11.6L57.3,22.2l-5.1,17L55.1,22A101.5,101.5,0,0,0,27.5,45.5C9.9,66.6,8.2,92.2,8.2,93.3s11.4-14.8,37-15.2a106.3,106.3,0,0,1,17.9,1L78.7,61.8l-38.8-2,38.8-2L59.3,36.2,81,55.6l2-38.8,2,38.9,21.5-19.5L87.2,57.8l38.7,2-38.7,2,19.3,21.6L85,64.1,84,82.5l24.8,4.7a183.5,183.5,0,0,0,29.6,3.1c3.7,0,10-.3,10-.3,7.9-8.1,17.2-18.6,20.9-24.9s10.1-17.8,10.1-29.7C162.1,19.7,138.9,8,108,8Zm22.1,34.4-10.2-8.5-1,17.7-1.3-17.8-10,8.5,8.2-10.1L98.4,30.9,116,29.6l-8.4-10,10,8.6,1.2-17.9,1.1,17.8L130,19.6l-8.4,10,17.6,1.2-17.5,1.3Z"></path></svg>